{"accessors" : [{"bufferView" : 0, "byteOffset" : 0, "componentType" : 5123, "count" : 24228, "type" : "SCALAR", "max" : [19986], "min" : [0]}, {"bufferView" : 1, "byteOffset" : 0, "componentType" : 5126, "count" : 19987, "type" : "VEC3", "max" : [1.3311574459075928, 2.066751480102539, 1.7028900401783176E-05], "min" : [-1.3311575651168823, -1.9497096538543701, -0.22699998319149017], "name" : "POSITION"}, {"bufferView" : 1, "byteOffset" : 12, "componentType" : 5126, "count" : 19987, "type" : "VEC3", "max" : [0.9989385008811951, 0.9988791346549988, 1.0000044107437134], "min" : [-0.9989398121833801, -0.9993064403533936, -1.0000044107437134], "name" : "NORMAL"}, {"bufferView" : 1, "byteOffset" : 24, "componentType" : 5126, "count" : 19987, "type" : "VEC2", "max" : [1, 0.9915088415145874], "min" : [0.018413420766592026, 0], "name" : "TEXCOORD_0"}, {"bufferView" : 0, "byteOffset" : 48456, "componentType" : 5123, "count" : 1440, "type" : "SCALAR", "max" : [1198], "min" : [0]}, {"bufferView" : 2, "byteOffset" : 0, "componentType" : 5126, "count" : 1199, "type" : "VEC3", "max" : [0.5493248105049133, 1.2057952880859375, -0.008733756840229034], "min" : [-0.5493248105049133, 0.10497349500656128, -0.22699998319149017], "name" : "POSITION"}, {"bufferView" : 2, "byteOffset" : 12, "componentType" : 5126, "count" : 1199, "type" : "VEC3", "max" : [0.9981173872947693, 1.0000044107437134, 0.7995820641517639], "min" : [-0.9981173872947693, -1.0000044107437134, -0.7995820641517639], "name" : "NORMAL"}, {"bufferView" : 2, "byteOffset" : 24, "componentType" : 5126, "count" : 1199, "type" : "VEC2", "max" : [0.4890861511230469, 0.9875070452690125], "min" : [0.005859374068677425, 0.7075117826461792], "name" : "TEXCOORD_0"}], "asset" : {"generator" : "Aspose.3D 23.7.0", "version" : "2.0"}, "buffers" : [{"uri" : "data:application/octet-stream;base64,", "byteLength" : 872724}], "bufferViews" : [{"buffer" : 0, "byteOffset" : 0, "byteLength" : 51336, "target" : 34963}, {"buffer" : 0, "byteOffset" : 51340, "byteLength" : 775296, "byteStride" : 32, "target" : 34962}, {"buffer" : 0, "byteOffset" : 826640, "byteLength" : 46080, "byteStride" : 32, "target" : 34962}], "materials" : [{"name" : "Outsides", "pbrMetallicRoughness" : {"baseColorFactor" : [1, 0, 0.005134000000000041, 1], "metallicFactor" : 0, "roughnessFactor" : 0.4581578183933255}, "emissiveFactor" : [0, 0, 0], "alphaMode" : "OPAQUE", "doubleSided" : true}, {"name" : "Insides", "pbrMetallicRoughness" : {"baseColorFactor" : [0.153193, 0.153193, 0.153193, 1], "metallicFactor" : 0.8635182962447585, "roughnessFactor" : 0.3172758374253706}, "emissiveFactor" : [0, 0, 0], "alphaMode" : "OPAQUE", "doubleSided" : true}], "meshes" : [{"primitives" : [{"attributes" : {"POSITION" : 1, "NORMAL" : 2, "TEXCOORD_0" : 3}, "indices" : 0, "material" : 0, "mode" : 4}]}, {"primitives" : [{"attributes" : {"POSITION" : 5, "NORMAL" : 6, "TEXCOORD_0" : 7}, "indices" : 4, "material" : 1, "mode" : 4}]}], "nodes" : [{"mesh" : 0, "name" : "Plane_Outsides_0"}, {"mesh" : 1, "name" : "Plane_Insides_0"}, {"children" : [0, 1], "matrix" : [100, 0, 0, 0, 0, 99.9999999999999, 4.371138828673792E-06, 0, 0, -4.371138828673792E-06, 99.9999999999999, 0, 0, 0, 0, 1], "name" : "Plane"}, {"children" : [2], "name" : "RootNode"}, {"children" : [3], "matrix" : [0.009999999776482582, 0, 0, 0, 0, 0, 0.009999999776482582, 0, 0, -0.009999999776482582, 0, 0, 0, 0, 0, 1], "name" : "352c2b73c9204e899b109cb3440e44dc.fbx"}, {"children" : [4], "matrix" : [0.9999877214431763, -1.597111658898542E-16, -0.004958897363394499, 0, -0.004958897363394499, 3.8285414083350525E-16, -0.9999877214431763, 0, 1.616077453472529E-16, 1, 3.8205744017216357E-16, 0, 0.000562792643904686, 3.0307006936246724E-13, -1.4479578567261342E-06, 1], "name" : "Sketchfab_model"}], "scene" : 0, "scenes" : [{"nodes" : [5]}]}